# xmcd
#
# Track frame offsets: 
#        150
#        11171
#        21960
#        33271
#        47926
#        63312
#        76151
#        86900
#        102874
#        112931
#        124099
#        136129
#        148367
#        167201
#        180001
#        196027
#        212971
#        223132
#        233803
#        245506
#
# Disc length: 3371 seconds
#
# Revision: 0
# Processed by: cddbd v1.5.2PL0 Copyright (c) Steve Scherf et al.
# Submitted via: ExactAudioCopy v0.99pb4
#
DISCID=180d2914
DTITLE=George Hamilton IV - George Hamilton IV - Heritage and Legacy -
DTITLE=50th Anniversary
DYEAR=2006
DGENRE=Country
TTITLE0=Abilene
TTITLE1=Out Behind The Barn
TTITLE2=Break My Mind
TTITLE3=Canadian Pacific
TTITLE4=Forever Young
TTITLE5=Before This Day Ends
TTITLE6=Truck Driving Man
TTITLE7=Early Mornin' Rain
TTITLE8=Why Don't They Understand
TTITLE9=A Rose and a Baby Ruth
TTITLE10=Life's Railway to Heaven
TTITLE11=Home Grown
TTITLE12=Me and My Old Guitar
TTITLE13=We Will Meet Again
TTITLE14=Has Anybody Here Seen Hank?
TTITLE15=The John Newton Story
TTITLE16=Amazing Grace
TTITLE17=Jesus Makes My Heart Rejoice
TTITLE18=Morning Star
TTITLE19=You Are My Sunshine
EXTD=
EXTT0=
EXTT1=
EXTT2=
EXTT3=
EXTT4=
EXTT5=
EXTT6=
EXTT7=
EXTT8=
EXTT9=
EXTT10=
EXTT11=
EXTT12=
EXTT13=
EXTT14=
EXTT15=
EXTT16=
EXTT17=
EXTT18=
EXTT19=
PLAYORDER=
